<?xml version="1.0" encoding="utf-8"?>
<!-- Generator: Adobe Illustrator 16.0.0, SVG Export Plug-In . SVG Version: 6.00 Build 0)  -->
<!DOCTYPE svg PUBLIC "-//W3C//DTD SVG 1.1//EN" "http://www.w3.org/Graphics/SVG/1.1/DTD/svg11.dtd">
<svg version="1.1" id="Calque_1" xmlns="http://www.w3.org/2000/svg" xmlns:xlink="http://www.w3.org/1999/xlink" x="0px" y="0px"
	 width="640px" height="480px" viewBox="0 0 640 480" style="enable-background:new 0 0 640 480;" xml:space="preserve">
<style type="text/css">
<![CDATA[
	.st0{font-family:'MyriadPro-Regular';}
	.st1{fill:#F5DEDE;}
	.st2{fill:#C3C1B5;}
	.st3{fill:none;stroke:#0AAF70;stroke-width:2;stroke-miterlimit:10;}
	.st4{fill:#FC6141;}
	.st5{fill:#FCF0DD;}
	.st6{fill:#2F2F2F;}
	.st7{fill:none;stroke:#FC6141;stroke-width:2;stroke-miterlimit:10;}
	.st8{font-size:10;}
	.st9{font-size:12;}
	.st10{fill:#3E3E3D;}
	.st11{fill:#74736E;}
	.st12{fill:#0AAF70;}
	.st13{font-family:'MyriadPro-It';}
]]>
</style>
<path class="st10" d="M240.397,261.789c-3.788-1.054-3.998,0.21-4.419-1.895c-0.421-2.105-2.946-2.105-5.261-2.105
	s-3.157-0.21-5.051-1.895c-1.894-1.683-5.893-1.894-7.155-2.315c-1.263-0.42-0.631-3.998-3.156-7.364
	c-2.526-3.367-7.788-3.998-11.154-5.893s-2.315-9.26-7.156-8.628c-4.839,0.632-5.261,2.525-9.68,0.21
	c-4.419-2.314-7.366-3.788-9.681-2.104c-2.315,1.683-5.261,4.839-6.734,5.682c-1.473,0.842-3.999-0.631-5.472-0.42
	c-1.473,0.21-3.157-1.475-4.208-2.946c-1.052-1.474,1.894-8.84-0.841-8.84c-2.736,0-6.314-1.262-6.314-2.315
	c0-1.052,5.682-7.366,3.999-8.417c-1.684-1.054-5.051-0.421-7.998,3.577c-2.946,4-5.682,3.788-7.155,2.315
	c-1.474-1.473-4.84-10.101-2.105-14.941s7.155-7.156,10.522-6.945c3.368,0.211,2.947-0.841,6.314-1.051
	c3.367-0.21,7.576,0.841,8.417,2.105c0.841,1.261-0.842,3.366,1.263,5.892c2.104,2.525,3.367,1.474,3.577,2.525
	c0.211,1.052-1.683,2.104-2.525,2.104c-0.841,0-7.787,1.895-5.051,3.156c2.736,1.264,7.576,0.21,8.628,1.895
	s-3.367,5.261,2.947,5.471c6.313,0.21,10.521,1.054,14.1,1.263c3.578,0.211,6.103,0.422,6.524,1.263
	c0.421,0.842,2.946-3.156-2.946-3.156c-5.894,0-10.523-3.367-13.68-3.998c-3.157-0.632-5.261-2.737-5.472-5.262
	c-0.21-2.525,0.211-4.418-1.052-6.523c-1.263-2.104-4.419-7.154-1.474-9.259c2.946-2.105,8.839-6.104,10.312-8.84
	c1.473-2.735,1.473-3.366,4.84-5.471c3.368-2.105,7.367-4.84,9.26-6.735c1.895-1.894,5.051-4.84,5.683-3.366
	c0.631,1.473,3.578,1.895,7.156,0.63c3.578-1.261,7.996-4.418,4.208-4.418c-3.788,0-6.104-1.052-5.051-2.525
	c1.052-1.473-2.525-2.105-3.578-1.893c-1.053,0.21-1.053-2.105,2.525-2.738c3.578-0.631,0.631,2.526,3.578,2.316
	c2.946-0.21,4.84-2.525,6.945-2.947c2.104-0.42,2.946,1.474,0.209,3.369c-2.736,1.893-3.577,1.261,0,2.104
	c3.578,0.842,4.63,2.735,6.735,0.842c2.104-1.895-0.421-2.525-0.632-5.051c-0.21-2.525,0.421-7.156-1.894-8.84
	c-2.315-1.683-2.315-3.787-2.315-5.471c0-1.683,0.421-5.261-1.894-3.578c-2.314,1.683-4.208,2.735-5.05,1.895
	c-0.842-0.842,0.421-2.527-1.473-3.788c-1.894-1.264-2.104-3.157-4.419-2.947c-2.315,0.212-4.63-1.683-5.892,1.053
	c-1.264,2.735-2.526,5.051-2.947,5.893c-0.421,0.842,1.473,3.788-0.211,5.261c-1.684,1.473-6.313,3.578-6.944,5.05
	c-0.631,1.473-3.157,5.262-3.788,2.736c-0.631-2.524,2.104-6.313-1.684-7.366c-3.788-1.053-6.734-0.209-7.365-2.524
	c-0.632-2.315-2.315-4.42,1.472-6.314c3.789-1.895,7.577-5.261,11.154-5.681c3.578-0.42,1.053,2.525,3.999,2.315
	c2.946-0.21-0.421-1.685,3.156-2.315c3.578-0.631,2.947-0.631,1.894-1.895c-1.052-1.263-0.42-1.473,2.316-2.736
	c2.735-1.263,0.631-2.104,3.367-3.156c2.736-1.054,3.367-2.105,4.841-2.105c1.472,0,1.262,0.631,0.42,2.525
	c-0.842,1.893-1.473,3.156,1.052,1.893c2.526-1.262,3.789-2.104,1.895-0.21c-1.895,1.895-3.157,1.895-5.894,2.315
	c-2.735,0.42-1.894,0.842-0.631,2.315c1.263,1.473,4.42,1.683,5.473,2.525c1.052,0.842,2.314,3.788,4.84,2.314
	c2.525-1.472,0.631-1.682,3.998-3.156c3.367-1.473,8.208-2.315,7.787-4.209c-0.421-1.894-3.788-2.946-4.209-5.261
	c-0.42-2.315,4.63-3.577-1.894-4.629c-6.523-1.053-2.735-1.895-5.892-1.895c-3.157,0-9.049,0-11.154,1.053
	c-2.104,1.052-3.367-0.631-4.418,1.052c-1.053,1.683,0.21,3.999-0.842,3.999c-1.053,0-2.947,1.684-3.789,0
	c-0.842-1.683-2.735-3.366-0.21-3.999c2.525-0.632,2.946-0.21,3.367-2.105c0.421-1.893-3.578-1.683-1.263-2.104
	c2.315-0.42,3.367,0.21,6.524,0.21c3.157,0,10.312,1.261,11.364-0.631c1.052-1.895-1.684-1.895-4.84-2.105
	c-3.157-0.21-8.628-1.264-10.943-0.21c-2.315,1.051-5.262,2.735-6.313,4.418c-1.052,1.683-1.052-0.421-3.157,0
	c-2.104,0.42-5.682,2.736-3.788,3.999s1.894,2.735-0.211,2.735c-2.104,0-2.735,2.105-4.208,2.105s-5.472-0.21-3.578-1.263
	s3.999-1.052,3.788-3.578c-0.21-2.525,2.104-3.366,2.104-4.21c0-0.841-5.05,1.895-9.049,0.632c-3.999-1.262-5.682-3.156-9.681-2.945
	c-3.999,0.21-9.259,5.472-6.734,5.893c2.526,0.42,4.42-0.42,4.841,0.841c0.42,1.264-0.421,2.315,1.052,2.947
	c1.473,0.632,4.209,2.314,0.631,1.473c-3.578-0.841-1.894-2.315-7.366-2.525c-5.472-0.21-8.838-1.895-14.521-0.42
	c-5.682,1.473-4.841,2.736-8.628,1.473c-3.788-1.263-11.786-4.208-18.098-2.947c-6.314,1.264-14.1,3.368-15.994,4.63
	s1.894,2.525-1.473,2.735c-3.367,0.21-11.364,0-9.681,2.105s3.788,2.315,1.262,2.735c-2.525,0.421-5.893,0.632-7.154,2.525
	c-1.264,1.895-5.894,2.946-2.947,3.79c2.947,0.841,7.787,2.735,5.682,2.946c-2.105,0.21-12.838,4.42-17.468,5.471
	c-4.629,1.052-8.418,6.103-4.419,4.63c5.078-1.869,18.729-6.103,21.255-7.155c2.525-1.053,3.577-0.21,3.367,1.263
	c-0.21,1.473,2.947-0.632,5.472-2.525c2.524-1.894,2.524-5.683,4.63-4.419c2.104,1.262,3.367,0,5.051-0.421
	c1.683-0.421,3.367-1.473,4.84-0.632c1.473,0.844,5.261,1.685,6.313,2.527c1.053,0.841,1.474,2.735,0.422,2.946
	c-1.053,0.21-1.263,1.263-1.053,2.946c0.211,1.684,1.053,3.157-1.052,3.578c-2.104,0.42-1.684,2.946-0.421,2.735
	c1.263-0.21,2.104-0.841,2.315-2.104s2.946-3.578,2.525-1.895c-0.421,1.683-1.473,3.368-1.473,4.63s-1.474,1.052-1.683,2.315
	c-0.211,1.263,0.209,1.263,1.262,2.315c1.053,1.053,0.421,1.683,0.21,3.999c-0.21,2.315-6.523,8.628-7.366,10.733
	c-0.842,2.104-0.42,5.049-0.42,7.365c0,2.315-0.842,5.262,1.473,6.104c2.315,0.841,2.525,1.262,2.525,3.367
	c0,2.104,0,4.63,1.263,6.103c1.263,1.473,0.631,1.263,0.631,3.578s1.473,1.052,1.684,2.946c0.21,1.895-1.052,2.737,1.053,4.209
	c2.104,1.473,4.419,2.525,3.367,0.21c-1.052-2.315-1.684-4.21-2.736-7.576c-1.052-3.367-1.683-9.47-0.421-7.576
	c1.263,1.895,2.947,7.576,4.84,11.574c1.895,3.998,4.209,3.578,4.209,6.523c0,2.947-2.314,5.683,2.315,7.576
	c4.63,1.895,7.997,5.893,10.732,5.473c2.736-0.422,4.42-2.104,5.472-0.211c1.052,1.895,3.367,4.42,5.893,4.42
	s3.367,1.684,3.788,4.209c0.421,2.525,2.104,2.946,4.63,3.788c2.526,0.842,3.157,3.578,5.051,3.366
	c1.893-0.209,4.419-1.052,4.419,0.842c0,1.895,0.841,6.525-2.315,9.47c-3.157,2.946-4.629,5.051-2.946,6.945
	c1.683,1.894,0.21,3.787-0.632,5.261c-0.841,1.474,0.632,2.736,2.315,5.051c1.684,2.315,3.999,5.051,5.472,9.681
	c1.474,4.63,3.578,6.314,7.155,7.786c3.578,1.474,6.313,3.999,6.313,7.576c0,3.579-0.21,15.782-0.21,19.361
	c0,3.576,1.895,7.155,1.263,9.892c-0.632,2.735,0,5.05,0.841,6.102c0.842,1.054,0.632,3.368,0.842,5.684
	c0.211,2.315,2.736,0.631,2.736,2.735c0,2.105-1.052,5.261,0.21,6.312c1.262,1.054-1.473,4.84,4.209,8.419
	c5.682,3.577,6.104,3.787,6.524,4.42c0.42,0.631,2.314-1.264,2.314-0.213c0,1.054-3.156,4.21,2.736,4.21
	c5.893,0,9.471,0.844,5.893-1.895c-3.578-2.735-5.682-1.472-6.314-4.207c-0.631-2.735-1.472-2.315-1.894-4.21
	c-0.421-1.895,1.474-2.735,0.842-4.63s-3.157-1.895-2.946-3.787c0.211-1.895,1.683-3.789,2.104-4.63
	c0.422-0.844,0.422-1.685-0.631-2.525c-1.052-0.844-0.841-1.054,0.631-1.475c1.474-0.42,1.684,0.211,2.315-1.895
	c0.631-2.102,2.525-1.892,3.367-2.525c0.842-0.63,3.789-1.471,2.736-4.207c-1.052-2.735-3.157-3.999-0.842-3.999
	c2.315,0,4.63-0.21,6.103-3.156c1.474-2.945,0.842-3.579,2.526-5.892c1.683-2.315,1.894-4.21,1.894-5.894
	c0-1.685-0.842-3.366,1.473-4.421c2.315-1.051,9.892-2.314,10.944-5.471s2.104-6.524,1.683-9.891
	c-0.42-3.367-0.631-5.471,1.684-8.208c2.314-2.735,5.261-5.05,5.261-7.575S244.186,262.84,240.397,261.789z M279.33,123.524
	c2.315-2.525,1.685-3.789,4.841-5.05c3.156-1.264,2.315-2.947,1.894-5.473c-0.421-2.525,0-1.473,1.263-2.315
	s3.157-1.473,6.104-1.683c2.945-0.21,0.21-1.263,0.21-2.525s-2.104-1.052-5.051-0.632c-2.946,0.422-2.525,0-4.629-0.842
	c-2.104-0.841-14.521-0.841-17.677-0.841c-3.157,0-8.839,0.63-11.786,0.841c-2.946,0.211-2.735,0-8.417-0.631
	c-5.683-0.63-20.624-0.21-26.096,0.42c-5.472,0.632-9.47,1.264-13.049,3.579c-3.577,2.314-5.892,1.472-9.891,1.892
	c-3.999,0.422-4.418,0.422-6.313,0.422c-1.894,0-1.684-1.052-5.05,0.21c-3.367,1.262-2.315,2.104-3.578,0.421
	c-1.263-1.684-2.946,0-8.839,1.473c-5.892,1.473,2.104,3.157,3.999,3.788c0,0,3.998-0.21,6.313-0.841
	c2.315-0.632,3.367,0.841,4.84,0.42c1.473-0.42,1.895-1.895,10.312-3.789c8.418-1.894,14.31-0.42,17.678,1.054
	c3.367,1.472,3.367,0.631,6.313-1.264c2.946-1.895,7.997-3.366,13.258-4.208c5.261-0.842,1.894,1.053-1.473,2.314
	c-3.367,1.264-6.313,0.844-5.683,2.947c0.632,2.105,7.156,1.473,9.05,1.473c1.894,0,2.104,2.946,2.314,4.63
	c0.21,1.685-0.21,2.525,0.21,4.209c0.421,1.683,1.474,1.473-0.42,3.156c-1.894,1.685-2.947,1.473-2.947,4.42
	c0,2.946,1.263,6.102,4.21,8.207c2.946,2.105,4.629,2.315,6.314-1.051c1.683-3.367,5.681-5.472,7.786-6.524
	c2.104-1.053,5.05,0,7.786-2.525c2.735-2.525,6.313-1.473,10.312-2.736S277.016,126.049,279.33,123.524z M283.54,128.365
	c-6.313,0.841-12.207-1.264-11.153,2.104c1.052,3.367,1.263,8.418,4.629,7.366c5.783-1.808,12.207-2.736,10.733-5.473
	C286.275,129.626,289.853,127.522,283.54,128.365z M323.724,114.104c0.226,0.063,0.45,0.084,0.643,0.16
	c2.104,0.842,3.577-0.42,3.788-2.105c2.314-3.366,1.473,2.736,3.999,1.685c2.524-1.052,6.103-3.579,9.049-5.051
	c2.946-1.474-3.577-0.842-8.839-1.684c-5.261-0.841-12.626,0.632-14.731,2.104C315.67,110.586,320.65,113.235,323.724,114.104z
	 M357.828,109.634c0,0-1.053,1.474,1.473,1.474s7.787-1.685,11.996-1.685s2.945-1.473,2.104-1.473c-0.841,0-3.156-2.313-6.523-2.104
	c-3.367,0.211-3.156,1.683-5.261,1.683s-1.685-0.631-6.103-0.42C351.094,107.318,355.514,109.213,357.828,109.634z M503.247,272.73
	c3.367,0.421,5.893,0,8.208-1.262c2.314-1.263,1.263-2.736,1.052-3.368c-0.211-0.631-1.895,0.632-4.209,1.054
	c-2.315,0.421-2.946,0.421-5.894,0.631c-2.945,0.21-1.052-1.053-4.208-1.263c-3.156-0.212-6.313-0.842-9.891-2.104
	c-3.578-1.263-5.473-2.315-7.997-3.157c-2.525-0.842-0.211-2.315-0.422-5.892c-0.21-3.578-2.525-2.105-4.419-3.368
	s-1.263-3.998-0.421-3.157c0.842,0.843,1.053,1.895,1.053-2.525c0-4.418-3.999-7.365-6.523-11.152
	c-2.526-3.789-2.105-5.894-1.896-7.787c0.211-1.894,4.63,1.683,6.945,4.418c2.315,2.737,2.315,2.737,3.578,2.105
	c1.263-0.631,5.051-2.736,5.892-6.102c0.842-3.369-6.734-10.101-7.785-13.26c-1.054-3.156,1.473-1.261,2.735-3.366
	s2.735,0.842,1.894,2.315c-0.842,1.473,0.21,2.315,1.053,3.788c0.841,1.473,0.841,0,1.684-1.893c0.842-1.895,0.21-2.525,1.683-3.79
	c1.474-1.263,7.156-2.946,8.629-4.42c1.474-1.472,2.525-3.156,4.419-8.417c1.895-5.261-0.21-5.05-1.052-6.945
	c-0.842-1.895-3.367-5.05-4.84-6.945c-1.474-1.893-0.211-1.471,0.841-2.104c1.053-0.632,0.211-2.104-2.314-2.947
	c-2.525-0.841-2.104,0.842-4.419,0.421c-2.315-0.421-1.053-2.104,1.473-5.052c2.525-2.946,1.263,0.633,2.946,1.895
	c1.684,1.264,2.104-1.051,3.367-0.42c1.263,0.631,3.788,1.895,5.683,4.42c1.894,2.525,1.894,5.471,3.788,5.261
	c1.894-0.21,1.894-1.053,2.735-2.946c0.841-1.895-2.314-3.579-3.788-5.051c-1.474-1.474-2.945-1.474-1.685-2.737
	c1.263-1.263,0.211-3.156,0.843-4.629c0.632-1.474,2.947-0.632,5.261-1.685c2.316-1.052,2.525-4.63,2.525-8.418
	s-1.894-5.471-2.946-6.734c-1.052-1.264,1.263-0.632,3.156,0.841c1.895,1.474,4.841,9.471,5.473,12.627
	c0.631,3.158,0.21,3.158,2.735,5.894c2.525,2.735,1.684,2.315,0.843,5.471c-0.843,3.156-2.947,3.998-6.104,4.84
	c-3.157,0.841-2.104,1.473-3.998,4.63c-1.895,3.156,1.051,3.366,2.735,4.208c1.684,0.842,2.525-2.315,4.63-3.788
	c2.104-1.473,4.419-2.525,7.997-2.525c3.577,0-1.053-4.841-1.263-7.366c-0.211-2.525-0.421-4.21-1.263-6.104
	c-0.843-1.893,0.842-1.893,3.367-3.157c2.525-1.261,2.315-3.787,0.843-3.787c-1.475,0-2.737,1.051-6.104,0.841
	c-3.366-0.21-2.524-2.946-3.366-3.998c-0.843-1.052-1.895-3.368-2.105-5.262c-0.21-1.895-3.156-4.418-5.261-6.312
	c-2.104-1.895-3.367-3.157-3.367-2.315c0,0.841-1.263-0.21-4.209-0.422c-2.946-0.209-3.578,0.422-6.103,0.211
	c-2.525-0.211,0.21-4.42,1.262-7.366c1.053-2.947,3.999-1.264,6.314-1.264c2.314,0,3.366,0.211,6.733,1.052
	c3.367,0.842,1.895-2.104,2.525-4.418c0.632-2.315,2.104-1.053,3.999-0.21c1.894,0.841,2.525,1.051,2.525-0.842
	c0-1.893,1.684-2.315,3.156-0.632c1.473,1.685-2.525,5.262-2.525,5.262s-1.263,3.788,1.053,5.049
	c2.314,1.264,6.945,6.735,9.681,8.629c2.735,1.894,0.842-3.157,0.842-6.735c0-3.577-2.526-3.156-4.42-6.523
	c-1.893-3.368-0.63-1.894,2.946-1.894c3.577,0,3.789-1.264,4.63-2.315c0.843-1.054,1.475-1.264,4.63-1.264
	c3.156,0,1.263-1.262-0.21-2.946c-1.473-1.683-4.42-1.261-3.367-2.315c1.052-1.051,6.733,0.632,9.471,1.685
	c2.735,1.051,2.104,0.21,1.683-2.315c-0.42-2.525-2.735-0.632-9.471-3.158c-6.733-2.524-14.1-3.998-16.414-3.998
	c-2.315,0-0.632-1.473,1.052-1.473s1.263-1.473-0.42-2.315c-1.685-0.842-3.157-0.21-3.788,1.683
	c-0.632,1.895,1.894,2.105-2.947,2.105c-4.839,0-8.418,0-14.1-1.052c-5.683-1.053-7.786-1.053-12.628-1.263
	c-4.84-0.21-4.418-2.315-9.469-2.315c-5.052,0-3.367-1.895-5.472-4.208c-2.105-2.315-3.156-1.684-9.471-1.684
	c-6.312,0-2.945,2.525-1.684,2.946c1.264,0.42,4.63,1.473,6.945,3.578c2.314,2.104-4.209,1.263-6.945,1.473
	c-2.736,0.21-2.525-1.473-5.682-3.368c-3.157-1.893-10.943-0.842-15.363-1.052c-4.42-0.21-4.63,0-6.312-3.156
	c-1.684-3.157-5.262-1.474-9.893-1.474c-4.629,0-7.154-2.315-9.469-3.787c-2.314-1.474-5.893-1.684-10.944-2.525
	c-5.05-0.842-2.314,3.156-0.421,3.366c0,0,2.105,0.842,4.209,1.052c2.105,0.21,6.525,0.422,8.84,3.157
	c2.314,2.736-7.156,1.683-11.365,3.998c-4.209,2.315-7.576,1.263-10.521,2.525c-2.947,1.263,1.473,3.368,2.525,6.103
	c1.052,2.736,0,2.736-1.895,3.368c-1.895,0.631,0.632-2.947-0.21-3.998c-0.841-1.054-3.999-6.525-6.524-8.209
	c-2.525-1.682-2.104,1.474-1.683,3.79c0.419,2.315,1.052,2.315,1.683,3.998c0.632,1.683-2.736,0-4.42-1.263
	c-1.683-1.263-7.154,1.685-9.68,0.42c-2.525-1.261,0.842-0.841,0.842-2.105c0-1.261-2.947-0.21-3.789-2.104
	c-0.841-1.893,5.262-4.208,9.051-4.84c3.787-0.632,3.366-0.632,3.366-2.525c0-1.893-6.734-1.263-12.417,1.473
	c-5.682,2.735-4.209,4.63-5.05,6.525c-0.843,1.893,1.894,2.104,3.156,3.156s-1.473,1.474-3.999,2.315
	c-2.525,0.841-3.156,0-6.102,1.053c-2.947,1.052-1.264,2.315-3.789,3.367c-2.525,1.051-2.314,1.051-4.419,1.894
	s0.421-3.157,3.367-3.578s2.104-2.105,1.263-2.736c-0.842-0.63-6.313-2.315-12.205-4c-5.894-1.682-15.363,0.632-18.52,2.105
	c-3.158,1.474-2.947,2.525-3.368,4.63s-7.576,5.261-11.154,7.155c-3.578,1.895-0.421,4.42,0.631,6.103
	c1.053,1.683,3.367,0.842,6.314,0c2.946-0.842,2.525,2.736,2.946,3.999c0.421,1.263,2.104,1.474,4.841,0.21
	c2.735-1.263,2.104-4.208,2.104-5.892c0-1.684-0.632-2.525,1.262-4.84c1.895-2.315,3.578-3.789,5.262-4.84
	c1.684-1.054,1.474,0.841-1.053,2.946c-2.525,2.105-0.841,2.735,0.422,5.261c1.262,2.525,3.787,0,6.944-0.42
	s-2.735,2.736-5.051,2.736s0,2.525-1.474,2.525c-1.473,0-1.683,1.053-1.894,3.578c-0.21,2.526-1.053,1.895-2.735,2.526
	c-1.684,0.631-4.209,0.841-6.945,0.209c-2.736-0.631-2.525-3.157-4.419-4.839c-1.895-1.684-2.315,0.841-2.315,1.894
	s-1.894,3.368-2.736,3.368c-0.842,0-3.367,2.525-4.84,4.629c-1.474,2.104-2.525,0.842-2.947,0c-0.42-0.842,1.053-2.104,0.212-4.208
	c-0.843-2.105-4.21-3.788-3.158-8.628c1.053-4.84-1.262-2.315-4.63-1.894c-3.367,0.42-4.419,1.894-4.629,3.156
	c-0.211,1.263-2.105,3.788-4.21,6.103c-2.104,2.315-0.631,4.208,0.421,6.734c1.052,2.525,3.789-0.841,4.63-2.946
	c0.842-2.105,1.894-3.156,3.156-2.105c1.263,1.052-1.894,2.946-2.314,5.471c-0.421,2.526,0.841,2.315,3.788,1.474
	c2.946-0.842,1.473-1.474,3.788-0.42c2.314,1.051-2.104,1.893-4.84,2.105c-2.735,0.21-1.683,2.104,0.632,3.787
	c2.314,1.684,1.263,4.209-0.211,4.42c-1.473,0.21-4.209,0.63-8.417,1.473c-4.209,0.842-0.421,4.208-1.264,6.103
	c-0.841,1.895-1.052,6.103,0.842,6.313c1.894,0.21,1.894,3.368,0.842,4.418c-1.053,1.054-1.263,2.105-3.788,4
	c-2.526,1.895-0.631,3.578-1.473,6.103c-0.842,2.525-2.946,1.053-5.472,3.788c-2.525,2.736-3.577,4.841-5.471,7.997
	c-1.894,3.157-2.105,3.368,0.211,7.156c2.314,3.789,0,4.84-1.895,8.207c-1.894,3.369,0.632,3.579,1.473,6.525
	c0.842,2.945,2.526,2.315,3.157,5.261s1.473,3.789,4.419,5.893c2.946,2.105,5.892,5.052,7.366,4.42
	c1.473-0.632,3.788-2.314,8.628-2.104c4.84,0.211,3.157-2.105,8.207-2.947c5.051-0.841,2.315,0.632,2.947,2.104
	c0.631,1.475,3.367,2.947,7.155,3.158c3.788,0.21,0.631,4.839,0.421,7.786c-0.21,2.946,0,2.946,1.894,5.472
	c1.894,2.525,4.419,8.207,5.051,11.152c0.631,2.947-0.632,6.314-2.315,9.051c-1.683,2.734-1.052,9.049,2.525,13.68
	c3.577,4.627,1.473,4.417,1.473,9.258c0,4.84,2.526,3.999,4.42,6.734c1.894,2.736,1.052,7.786,2.736,10.522
	c1.683,2.735,4.63,0.21,7.997-1.052c3.367-1.264,4.84-0.841,8.838-3.789c3.999-2.945,7.156-8.837,7.156-10.521
	s1.262-2.315,3.366-3.156c2.105-0.841,1.685-6.314,1.474-7.786c-0.211-1.475,0.42-2.735,1.263-3.579
	c0.841-0.841,6.103-5.892,7.997-7.996s0.21-5.051-0.211-8.418c-0.42-3.367-1.684-4.629-1.684-8.628c0-4-1.262-3.578,5.683-10.102
	c6.944-6.524,13.469-16.836,14.099-19.151c0.633-2.315,0.422-4.208,0-5.892c-0.419-1.685-9.469,1.683-11.574,1.683
	c-2.104,0-5.892-4.63-6.312-6.313c-0.42-1.684-3.578-3.367-6.314-5.893c-2.734-2.525-0.631-6.103-2.734-8.839
	c-2.105-2.735-3.157-6.735-3.578-9.05c-0.422-2.314,3.156,1.684,5.893,4.84c2.735,3.157,6.314,9.05,7.365,11.155
	c1.053,2.105,1.895,5.261,2.104,7.786s1.894,2.946,4.42,2.736c2.524-0.21,11.364-4.841,14.521-6.313
	c3.158-1.473,6.945-5.893,8.418-10.101s-3.156-3.578-5.26-5.683c-2.105-2.105-2.105,0-4.631,0.632
	c-2.525,0.63-4.631-2.737-8.629-6.523c-3.998-3.79-1.473-2.525-0.631-3.368c0.841-0.842,4.84,1.894,7.154,4.629
	c2.316,2.735,2.736,1.685,5.473,1.685c2.735,0,3.367,1.263,6.944,2.315c3.577,1.051,5.472-0.42,8.53-0.096
	c3.061,0.324,2.623,1.779,4.729,5.147c2.104,3.366,1.263,2.315,5.893,2.735c4.629,0.42,1.262,0,1.262,2.946s0.422,4,3.158,7.576
	c2.734,3.578,3.787,10.312,4.629,13.68c0.842,3.366,2.525,0,5.261,0s0.21,2.315,2.315,5.681c2.104,3.368,3.578-1.053,3.578-2.315
	c0-1.263-1.264-4.418-2.525-5.471c-1.264-1.052-2.947-0.842-1.475-2.525c1.475-1.684,0.211-3.367,0.211-5.683
	c0-2.315,0.211-3.998,1.264-5.05c1.052-1.053,4.84-4.841,7.154-7.576c2.315-2.735,4.209-3.157,7.365-2.947
	c3.157,0.212,0.632,0.632,2.525,3.158c1.895,2.525,2.314,6.103,4.42,8.628c2.105,2.525,2.316-0.42,3.998-1.262
	c1.685-0.842,0.633,2.525,1.895,5.05c1.263,2.527,0.421,5.893,0.421,8.208s2.735,4.629,4.42,6.733c1.683,2.105,1.052,3.158,0,3.999
	c-1.053,0.843-3.157-2.104-4.841-3.787c-1.684-1.685-4.209-0.632-2.525,1.262c1.684,1.895,2.736,5.261,4.63,8.84
	c1.894,3.576,5.893,7.786,8.629,11.574c2.735,3.788,11.574,5.471,14.941,5.471S499.881,272.311,503.247,272.73z M357.196,191.077
	c-1.263,2.525-1.894,4.21-3.788,3.578c-1.895-0.632-8.207-0.421-11.365-1.473c-3.155-1.053-7.785-2.946-8.627-0.631
	c-0.842,2.314,2.104,4.208-3.158,2.314c-5.26-1.894-10.942-4.208-11.574-5.893c-0.632-1.683,2.104-6.313-1.684-6.313
	s-9.049-0.21-10.732,1.052c-1.684,1.263-8.208,3.578-10.312,2.946c-1.914-0.572-4.84-1.261-1.473-2.735
	c3.368-1.473,7.366-0.631,7.786-2.736c0.421-2.105-2.946-2.525,0.421-4.42c3.367-1.894,2.105-3.577,4.419-4.63
	c2.315-1.051,5.472-0.841,7.156-1.471c1.683-0.632-0.631-1.264,2.735,0.63s5.472,5.471,7.155,5.683
	c1.685,0.209,2.736,1.473,1.685,2.314c-1.053,0.842-2.736,1.474-3.367,1.474c-0.632,0-1.053,1.683-0.422,1.894
	c0.632,0.211,2.104,2.947,3.158,2.104c1.051-0.842,0-2.104,1.894-2.735c1.894-0.632,3.787-1.473,2.946-2.737
	c-0.842-1.261-1.684-2.736,0-1.894s3.156,0.422,1.263-1.473s-2.526-1.895-4.841-3.578c-2.315-1.683-4.84-2.525-4.84-3.788
	s-1.474-3.578,0.842-2.736c2.314,0.841,10.312,5.261,10.312,6.945c0,1.683,2.104,4.629,0.209,6.102
	c-1.894,1.474,1.895,1.895,2.736,2.735c0.842,0.842,0.421,3.157,2.736,2.736c2.314-0.42,3.998-0.21,2.735-2.525
	c-1.263-2.315-3.367-3.366-1.263-4.208c2.104-0.842,2.525-1.894,3.157,1.683c0.632,3.579-0.211,4.84,4.84,5.051
	c5.05,0.211,8.417-1.262,9.05,0.211C357.617,186.026,358.459,188.552,357.196,191.077z M365.403,175.294
	c-3.367-0.211-9.05-1.264-11.785-1.264s-3.788,0.421-3.788,0.421c-2.314-0.421-7.787,1.053-5.051-2.526
	c2.736-3.577,1.053-8.207,4.42-6.944c3.367,1.262,3.578,6.103,5.682,3.157c2.105-2.947,4.42-6.315,5.051-4
	c0.631,2.315-2.945,4.209,1.474,6.103C365.824,172.136,368.771,175.505,365.403,175.294z M385.607,183.081
	c-3.157,0-6.945-0.632-6.945-2.315c0-1.685,0-4,0-4c-1.684-3.997-3.788-4.84-3.788-7.576c0-2.735,1.684-5.05,5.051-5.05
	c3.366,0,5.05-0.42,2.525,2.525c-2.525,2.946-4.841,3.157-1.474,7.787C384.344,179.081,388.764,183.081,385.607,183.081z
	 M499.89,211.502c1.657,0.474,2.129-6.384-0.945-5.438S497.948,210.948,499.89,211.502z M504.148,231.604
	c1.417,0.947,1.654,2.601,1.417,5.203c-0.236,2.601-2.601,2.366,1.42,4.021c4.02,1.655,8.75,4.494,7.566-0.709
	c-1.182-5.204-0.236-5.913-4.491-9.933c-4.258-4.02-4.493-1.418-4.967-4.729s-1.657-9.46-3.312-7.095
	c-1.459,2.087-2.599,2.837-0.944,6.385C502.491,228.293,502.728,230.658,504.148,231.604z M495.161,239.881
	c-1.431,1.839-4.259,5.912-6.148,7.331c-1.891,1.42-5.203-0.472-4.966,2.839c0.237,3.31,0.472,4.729,0.708,7.094
	c0.237,2.364,0.71,3.784,4.258,3.784s5.201,1.183,6.386,0.709c1.182-0.474,0.945-2.601,2.363-5.439
	c1.42-2.838,3.785-2.127,2.838-4.256s-0.947-1.655-0.947-3.784s1.185-0.71,0.474-4.257
	C499.418,240.354,496.817,237.754,495.161,239.881z M545.061,261.874c-3.075-3.31-8.277-5.676-10.408-5.438
	c-2.126,0.235-4.02,3.547-5.201,2.364c-1.183-1.183-4.73-6.856-6.622-5.202c-1.891,1.655,0.236,3.547-2.128,3.547
	s-3.075,2.838-3.549-0.946c-0.471-3.784-2.364-5.676-2.837-2.838c-0.472,2.838-0.708,4.73-1.891,2.602
	c-1.184-2.129-1.894-0.709-1.894-2.838c0-2.128-4.728-4.494-6.619-2.128c-1.184,1.477-1.655,1.654-2.128,4.966
	c-0.474,3.312-1.658,8.515,0.943,7.096c2.603-1.42,3.075-0.238,4.258-1.894s2.602-2.6,4.729-1.655
	c2.129,0.946,1.184,0.946,4.967,0.474c3.783-0.474,5.674-0.474,8.276,1.182s7.804,0.71,7.804,2.365c0,1.656-5.438,2.839,0,4.493
	c5.439,1.655,6.622,5.44,8.277,3.549c1.655-1.894,4.021-4.495,5.676-2.603c1.654,1.893,8.039,7.096,6.858,4.256
	c-1.184-2.837-0.947-5.439,2.839-8.513c3.782-3.074,2.835-4.492,1.18-4.492c-1.653,0-1.653,2.128-5.438,2.6
	C548.369,263.293,548.136,265.185,545.061,261.874z M546.715,292.381c-2.128-5.44-2.128-9.696-3.311-12.062
	c-1.182-2.365-0.238-5.202-3.784-5.202c-1.439,0-1.419,0.945-2.602,4.02c-1.182,3.074,0.236,8.751-2.837,8.041
	c-3.075-0.709-4.493-2.127-5.204-5.202c-0.709-3.074,0.947-5.913-1.417-5.913c-2.366,0-8.987-1.654-10.643,0.946
	c-1.656,2.602,0.472,3.548-3.074,3.548c-3.547,0-4.968,0.001-6.858,2.363c-1.892,2.366-4.493,8.987-14.662,9.461
	s-4.966,5.912-4.966,11.823c0,5.912-5.439,9.461-3.073,11.589c2.363,2.127-0.711,4.967,4.255,3.311
	c4.966-1.657,9.46-2.131,17.264-3.311c7.804-1.184,11.35-1.657,11.587,2.127c0.236,3.784-0.945,1.184,2.129,1.893
	c3.075,0.709-0.234,5.676,3.312,6.149c3.546,0.472,1.419,3.072,4.493,3.072c3.075,0,4.256,3.311,1.654,3.311
	s-6.383,5.438-2.602,3.549c3.784-1.892,7.568-2.365,7.568-5.202c0-2.84-0.472-3.075,4.021-6.621
	c4.493-3.549,14.898-12.062,14.189-18.919C551.444,298.293,548.846,297.819,546.715,292.381z M577.692,320.757
	c-1.89-0.944-1.89,0.712-3.074,4.258c-1.181,3.549-7.092,4.968-8.039,5.677c-0.946,0.709-2.839,2.837-2.839,2.837
	c-4.49,2.837-13.241,5.676-11.114,8.042c2.128,2.363,3.549,0.944,8.75-1.657c5.203-2.601,6.622-5.911,9.461-7.804
	c2.838-1.892,4.492-1.653,6.621-4.02S579.585,321.704,577.692,320.757z"/>
<g>
	<g>
		<ellipse class="st6" cx="154.627" cy="176.449" rx="13.347" ry="2.225"/>
		<path class="st4" d="M170.576,149.096c0.059-0.661,0.052-1.022,0.052-1.022c0-8.836-7.164-16-16-16s-16,7.164-16,16
			c0,0.514,0.032,1.032,0.078,1.551c0.006,0.063,0.013,0.125,0.02,0.188c1.274,12.799,15.902,26.636,15.902,26.636
			c10.279-9.755,13.956-18.467,15.27-23.587C170.272,151.663,170.493,150.398,170.576,149.096z"/>
		<circle class="st1" cx="154.628" cy="147.574" r="10.5"/>
	</g>
	<g>
		<text transform="matrix(1 0 0 1 226.5142 83.9907)" class="st2 st0 st9">Your ass</text>
	</g>
	<g>
		<text transform="matrix(1 0 0 1 226.5142 96.9907)" class="st11 st13 st8">is here</text>
	</g>
	<g>
		<circle class="st4" cx="154.627" cy="147.574" r="5"/>
		<circle class="st4" cx="218.764" cy="81.241" r="5"/>
		<line class="st7" x1="154.687" y1="147.491" x2="218.824" y2="81.241"/>
		<circle class="st1" cx="218.764" cy="81.241" r="2.25"/>
	</g>
</g>
<g>
	<g>
		<ellipse class="st6" cx="188.389" cy="250.879" rx="8.145" ry="1.357"/>
		<path class="st12" d="M198.065,234.188c0.036-0.402,0.031-0.623,0.031-0.623c0-5.393-4.371-9.763-9.763-9.763
			s-9.764,4.371-9.764,9.763c0,0.314,0.019,0.63,0.047,0.946c0.004,0.038,0.009,0.077,0.012,0.114
			c0.778,7.811,9.704,16.254,9.704,16.254c6.272-5.953,8.515-11.269,9.317-14.393C197.88,235.754,198.015,234.982,198.065,234.188z"
			/>
		<circle class="st5" cx="188.333" cy="233.26" r="6.407"/>
	</g>
	<g>
		<circle class="st12" cx="188.334" cy="233.26" r="3.051"/>
		<circle class="st12" cx="207.552" cy="212.7" r="3.051"/>
		<line class="st3" x1="188.37" y1="233.209" x2="207.589" y2="212.7"/>
		<circle class="st5" cx="207.553" cy="212.7" r="1.373"/>
	</g>
</g>
<g>
	<text transform="matrix(1 0 0 1 213.5142 215.6572)" class="st2 st0 st9">Asswer</text>
</g>
<g>
	<text transform="matrix(1 0 0 1 213.5142 228.6572)" class="st11 st13 st8">12-18-2013</text>
</g>
<g>
	<g>
		<ellipse class="st6" cx="304.722" cy="162.546" rx="8.145" ry="1.357"/>
		<path class="st12" d="M314.398,145.854c0.036-0.402,0.031-0.623,0.031-0.623c0-5.393-4.371-9.763-9.763-9.763
			s-9.764,4.371-9.764,9.763c0,0.314,0.019,0.63,0.047,0.946c0.004,0.038,0.009,0.077,0.012,0.114
			c0.778,7.811,9.704,16.254,9.704,16.254c6.272-5.953,8.515-11.269,9.317-14.393C314.213,147.421,314.348,146.649,314.398,145.854z
			"/>
		<circle class="st5" cx="304.667" cy="144.927" r="6.407"/>
	</g>
	<g>
		<circle class="st12" cx="304.667" cy="144.927" r="3.051"/>
		<circle class="st12" cx="323.885" cy="124.367" r="3.051"/>
		<line class="st3" x1="304.703" y1="144.876" x2="323.922" y2="124.367"/>
		<circle class="st5" cx="323.886" cy="124.367" r="1.373"/>
	</g>
</g>
<g>
	<text transform="matrix(1 0 0 1 329.8477 127.3242)" class="st2 st0 st9">Asswer</text>
</g>
<g>
	<text transform="matrix(1 0 0 1 329.8477 140.3242)" class="st11 st13 st8">02-14-2014</text>
</g>
<g>
	<g>
		<ellipse class="st6" cx="330.055" cy="245.879" rx="8.145" ry="1.357"/>
		<path class="st12" d="M339.731,229.188c0.036-0.402,0.031-0.623,0.031-0.623c0-5.393-4.37-9.763-9.763-9.763
			s-9.764,4.371-9.764,9.763c0,0.314,0.019,0.63,0.047,0.946c0.004,0.038,0.009,0.077,0.012,0.114
			c0.778,7.811,9.704,16.254,9.704,16.254c6.272-5.953,8.516-11.269,9.316-14.393C339.547,230.754,339.682,229.982,339.731,229.188z
			"/>
		<circle class="st5" cx="330" cy="228.26" r="6.407"/>
	</g>
	<g>
		<circle class="st12" cx="330" cy="228.26" r="3.051"/>
		<circle class="st12" cx="349.219" cy="207.7" r="3.051"/>
		<line class="st3" x1="330.036" y1="228.209" x2="349.256" y2="207.7"/>
		<circle class="st5" cx="349.219" cy="207.7" r="1.373"/>
	</g>
</g>
<g>
	<text transform="matrix(1 0 0 1 355.1807 210.6572)" class="st2 st0 st9">Asswer</text>
</g>
<g>
	<text transform="matrix(1 0 0 1 355.1807 223.6572)" class="st11 st13 st8">11-28-2013</text>
</g>
<g>
	<g>
		<ellipse class="st6" cx="409.389" cy="175.879" rx="8.145" ry="1.357"/>
		<path class="st12" d="M419.064,159.188c0.036-0.402,0.031-0.623,0.031-0.623c0-5.393-4.371-9.763-9.763-9.763
			s-9.764,4.371-9.764,9.763c0,0.314,0.019,0.63,0.048,0.946c0.004,0.038,0.008,0.077,0.012,0.114
			c0.777,7.811,9.704,16.254,9.704,16.254c6.272-5.953,8.515-11.269,9.317-14.393C418.879,160.754,419.014,159.982,419.064,159.188z
			"/>
		<circle class="st5" cx="409.333" cy="158.26" r="6.407"/>
	</g>
	<g>
		<circle class="st12" cx="409.333" cy="158.26" r="3.051"/>
		<circle class="st12" cx="428.552" cy="137.7" r="3.051"/>
		<line class="st3" x1="409.369" y1="158.209" x2="428.589" y2="137.7"/>
		<circle class="st5" cx="428.553" cy="137.7" r="1.373"/>
	</g>
</g>
<g>
	<text transform="matrix(1 0 0 1 434.5137 140.6572)" class="st2 st0 st9">Asswer</text>
</g>
<g>
	<text transform="matrix(1 0 0 1 434.5137 153.6572)" class="st11 st13 st8">02-09-2014</text>
</g>
<g>
	<g>
		<ellipse class="st6" cx="499.389" cy="311.212" rx="8.145" ry="1.357"/>
		<path class="st12" d="M509.064,294.521c0.037-0.402,0.031-0.623,0.031-0.623c0-5.393-4.37-9.763-9.762-9.763
			c-5.393,0-9.764,4.37-9.764,9.763c0,0.314,0.019,0.63,0.047,0.946c0.004,0.038,0.009,0.077,0.012,0.114
			c0.778,7.811,9.705,16.254,9.705,16.254c6.271-5.953,8.515-11.269,9.316-14.393C508.88,296.087,509.015,295.315,509.064,294.521z"
			/>
		<circle class="st5" cx="499.333" cy="293.593" r="6.407"/>
	</g>
	<g>
		<circle class="st12" cx="499.334" cy="293.593" r="3.051"/>
		<circle class="st12" cx="518.553" cy="273.033" r="3.051"/>
		<line class="st3" x1="499.369" y1="293.542" x2="518.59" y2="273.033"/>
		<circle class="st5" cx="518.553" cy="273.033" r="1.373"/>
	</g>
</g>
<g>
	<text transform="matrix(1 0 0 1 524.5137 275.9902)" class="st2 st0 st9">Asswer</text>
</g>
<g>
	<text transform="matrix(1 0 0 1 524.5137 288.9902)" class="st11 st13 st8">01-29-2014</text>
</g>
<g>
	<g>
		<ellipse class="st6" cx="235.389" cy="271.213" rx="8.145" ry="1.357"/>
		<path class="st12" d="M245.065,254.521c0.036-0.402,0.031-0.623,0.031-0.623c0-5.393-4.371-9.764-9.763-9.764
			s-9.764,4.371-9.764,9.764c0,0.314,0.019,0.629,0.047,0.945c0.004,0.039,0.009,0.078,0.012,0.115
			c0.778,7.811,9.704,16.254,9.704,16.254c6.272-5.953,8.515-11.27,9.317-14.393C244.88,256.088,245.015,255.316,245.065,254.521z"
			/>
		<circle class="st5" cx="235.333" cy="253.594" r="6.407"/>
	</g>
	<g>
		<circle class="st12" cx="235.334" cy="253.594" r="3.051"/>
		<circle class="st12" cx="254.552" cy="233.033" r="3.051"/>
		<line class="st3" x1="235.37" y1="253.543" x2="254.589" y2="233.033"/>
		<circle class="st5" cx="254.553" cy="233.033" r="1.373"/>
	</g>
</g>
<g>
	<text transform="matrix(1 0 0 1 260.5142 235.9907)" class="st2 st0 st9">Asswer</text>
</g>
<g>
	<text transform="matrix(1 0 0 1 260.5142 248.9902)" class="st11 st13 st8">12-27-2014</text>
</g>
<g>
	<g>
		<ellipse class="st6" cx="336.055" cy="317.213" rx="8.145" ry="1.357"/>
		<path class="st12" d="M345.73,300.521c0.037-0.402,0.031-0.623,0.031-0.623c0-5.393-4.369-9.764-9.762-9.764
			s-9.764,4.371-9.764,9.764c0,0.314,0.02,0.629,0.047,0.945c0.004,0.039,0.01,0.078,0.012,0.115
			c0.779,7.811,9.705,16.254,9.705,16.254c6.271-5.953,8.516-11.27,9.316-14.393C345.547,302.088,345.682,301.316,345.73,300.521z"
			/>
		<circle class="st5" cx="335.999" cy="299.594" r="6.407"/>
	</g>
	<g>
		<circle class="st12" cx="336" cy="299.594" r="3.051"/>
		<circle class="st12" cx="355.219" cy="279.033" r="3.051"/>
		<line class="st3" x1="336.035" y1="299.543" x2="355.256" y2="279.033"/>
		<circle class="st5" cx="355.219" cy="279.033" r="1.373"/>
	</g>
</g>
<g>
	<text transform="matrix(1 0 0 1 361.1807 281.9902)" class="st2 st0 st9">Asswer</text>
</g>
<g>
	<text transform="matrix(1 0 0 1 361.1807 294.9902)" class="st11 st13 st8">01-18-2014</text>
</g>
<g>
	<g>
		<ellipse class="st6" cx="184.722" cy="175.212" rx="8.145" ry="1.357"/>
		<path class="st12" d="M194.398,158.521c0.036-0.402,0.031-0.623,0.031-0.623c0-5.393-4.371-9.763-9.763-9.763
			s-9.764,4.371-9.764,9.763c0,0.314,0.019,0.63,0.047,0.946c0.004,0.038,0.009,0.077,0.012,0.114
			c0.778,7.811,9.704,16.254,9.704,16.254c6.272-5.953,8.515-11.269,9.317-14.393C194.213,160.087,194.348,159.315,194.398,158.521z
			"/>
		<circle class="st5" cx="184.667" cy="157.593" r="6.407"/>
	</g>
	<g>
		<circle class="st12" cx="184.667" cy="157.593" r="3.051"/>
		<circle class="st12" cx="203.885" cy="137.033" r="3.051"/>
		<line class="st3" x1="184.703" y1="157.542" x2="203.922" y2="137.033"/>
		<circle class="st5" cx="203.886" cy="137.033" r="1.373"/>
	</g>
</g>
<g>
	<text transform="matrix(1 0 0 1 209.8472 139.9902)" class="st2 st0 st9">Asswer</text>
</g>
<g>
	<text transform="matrix(1 0 0 1 209.8472 152.9902)" class="st11 st13 st8">01-24-2014</text>
</g>
<g>
</g>
<g>
	<g>
		<ellipse class="st6" cx="180.722" cy="217.212" rx="8.145" ry="1.357"/>
		<path class="st12" d="M190.398,200.521c0.036-0.402,0.031-0.623,0.031-0.623c0-5.393-4.371-9.763-9.763-9.763
			s-9.764,4.371-9.764,9.763c0,0.314,0.019,0.63,0.047,0.946c0.004,0.038,0.009,0.077,0.012,0.114
			c0.778,7.811,9.704,16.254,9.704,16.254c6.272-5.953,8.515-11.269,9.317-14.393C190.213,202.087,190.348,201.315,190.398,200.521z
			"/>
		<circle class="st5" cx="180.667" cy="199.593" r="6.407"/>
	</g>
	<g>
		<circle class="st12" cx="180.667" cy="199.593" r="3.051"/>
		<circle class="st12" cx="199.886" cy="179.033" r="3.051"/>
		<line class="st3" x1="180.703" y1="199.542" x2="199.923" y2="179.033"/>
		<circle class="st5" cx="199.886" cy="179.033" r="1.373"/>
	</g>
</g>
<g>
	<text transform="matrix(1 0 0 1 205.8477 181.9902)" class="st2 st0 st9">Asswer</text>
</g>
<g>
	<text transform="matrix(1 0 0 1 205.8477 194.9902)" class="st11 st13 st8">02-05-2014</text>
</g>
<g>
	<g>
		<ellipse class="st6" cx="492.723" cy="206.545" rx="8.145" ry="1.357"/>
		<path class="st12" d="M502.398,189.854c0.036-0.402,0.031-0.623,0.031-0.623c0-5.393-4.371-9.763-9.763-9.763
			s-9.764,4.371-9.764,9.763c0,0.314,0.019,0.63,0.048,0.946c0.004,0.038,0.008,0.077,0.012,0.114
			c0.777,7.811,9.704,16.254,9.704,16.254c6.272-5.953,8.515-11.269,9.317-14.393C502.213,191.42,502.348,190.649,502.398,189.854z"
			/>
		<circle class="st5" cx="492.667" cy="188.926" r="6.407"/>
	</g>
	<g>
		<circle class="st12" cx="492.667" cy="188.926" r="3.051"/>
		<circle class="st12" cx="511.886" cy="168.366" r="3.051"/>
		<line class="st3" x1="492.703" y1="188.875" x2="511.923" y2="168.366"/>
		<circle class="st5" cx="511.887" cy="168.366" r="1.373"/>
	</g>
</g>
<g>
	<text transform="matrix(1 0 0 1 517.8477 171.3237)" class="st2 st0 st9">Asswer</text>
</g>
<g>
	<text transform="matrix(1 0 0 1 517.8477 184.3237)" class="st11 st13 st8">01-24-2014</text>
</g>
</svg>
